<?xml version="1.0" encoding="UTF-8" standalone="no"?>
<!DOCTYPE svg PUBLIC "-//W3C//DTD SVG 1.1//EN"
 "http://www.w3.org/Graphics/SVG/1.1/DTD/svg11.dtd">
<!-- Generated by graphviz version 2.43.0 (0)
 -->
<!-- Title: NASTRAN_Execution Pages: 1 -->
<svg width="1814pt" height="937pt"
 viewBox="0.00 0.00 1813.50 936.50" xmlns="http://www.w3.org/2000/svg" xmlns:xlink="http://www.w3.org/1999/xlink">
<g id="graph0" class="graph" transform="scale(1 1) rotate(0) translate(4 932.5)">
<title>NASTRAN_Execution</title>
<polygon fill="white" stroke="transparent" points="-4,4 -4,-932.5 1809.5,-932.5 1809.5,4 -4,4"/>
<g id="clust1" class="cluster">
<title>cluster_legend</title>
<polygon fill="none" stroke="black" stroke-dasharray="5,2" points="1383.5,-682 1383.5,-920.5 1797.5,-920.5 1797.5,-682 1383.5,-682"/>
<text text-anchor="middle" x="1590.5" y="-905.3" font-family="Times,serif" font-size="14.00">Legend</text>
</g>
<!-- nastrn -->
<g id="node1" class="node">
<title>nastrn</title>
<path fill="lightgreen" stroke="black" d="M686,-898C686,-898 591,-898 591,-898 585,-898 579,-892 579,-886 579,-886 579,-857 579,-857 579,-851 585,-845 591,-845 591,-845 686,-845 686,-845 692,-845 698,-851 698,-857 698,-857 698,-886 698,-886 698,-892 692,-898 686,-898"/>
<text text-anchor="middle" x="638.5" y="-882.8" font-family="Times,serif" font-size="14.00">NASTRN</text>
<text text-anchor="middle" x="638.5" y="-867.8" font-family="Times,serif" font-size="14.00">(nastrn.f)</text>
<text text-anchor="middle" x="638.5" y="-852.8" font-family="Times,serif" font-size="14.00">Main Program</text>
</g>
<!-- semint -->
<g id="node2" class="node">
<title>semint</title>
<path fill="lightyellow" stroke="black" d="M730.5,-734.5C730.5,-734.5 546.5,-734.5 546.5,-734.5 540.5,-734.5 534.5,-728.5 534.5,-722.5 534.5,-722.5 534.5,-693.5 534.5,-693.5 534.5,-687.5 540.5,-681.5 546.5,-681.5 546.5,-681.5 730.5,-681.5 730.5,-681.5 736.5,-681.5 742.5,-687.5 742.5,-693.5 742.5,-693.5 742.5,-722.5 742.5,-722.5 742.5,-728.5 736.5,-734.5 730.5,-734.5"/>
<text text-anchor="middle" x="638.5" y="-719.3" font-family="Times,serif" font-size="14.00">SEMINT</text>
<text text-anchor="middle" x="638.5" y="-704.3" font-family="Times,serif" font-size="14.00">(semint.f90)</text>
<text text-anchor="middle" x="638.5" y="-689.3" font-family="Times,serif" font-size="14.00">Preface Execution Monitor</text>
</g>
<!-- nastrn&#45;&gt;semint -->
<g id="edge1" class="edge">
<title>nastrn&#45;&gt;semint</title>
<path fill="none" stroke="black" d="M638.5,-844.91C638.5,-817.94 638.5,-775.24 638.5,-744.91"/>
<polygon fill="black" stroke="black" points="642,-744.74 638.5,-734.74 635,-744.74 642,-744.74"/>
<text text-anchor="middle" x="666" y="-819" font-family="Times,serif" font-size="10.00">call semint</text>
</g>
<!-- defcor -->
<g id="node3" class="node">
<title>defcor</title>
<path fill="lightblue" stroke="black" d="M1134,-563.5C1134,-563.5 989,-563.5 989,-563.5 983,-563.5 977,-557.5 977,-551.5 977,-551.5 977,-537.5 977,-537.5 977,-531.5 983,-525.5 989,-525.5 989,-525.5 1134,-525.5 1134,-525.5 1140,-525.5 1146,-531.5 1146,-537.5 1146,-537.5 1146,-551.5 1146,-551.5 1146,-557.5 1140,-563.5 1134,-563.5"/>
<text text-anchor="middle" x="1061.5" y="-548.3" font-family="Times,serif" font-size="14.00">DEFCOR</text>
<text text-anchor="middle" x="1061.5" y="-533.3" font-family="Times,serif" font-size="14.00">Set platform defaults</text>
</g>
<!-- semint&#45;&gt;defcor -->
<g id="edge2" class="edge">
<title>semint&#45;&gt;defcor</title>
<path fill="none" stroke="black" d="M705.53,-681.41C788.07,-649.89 926.86,-596.9 1004.51,-567.26"/>
<polygon fill="black" stroke="black" points="1006.03,-570.42 1014.13,-563.59 1003.54,-563.88 1006.03,-570.42"/>
<text text-anchor="middle" x="965.5" y="-592" font-family="Times,serif" font-size="10.00">1. Initialize</text>
</g>
<!-- gnfiat -->
<g id="node4" class="node">
<title>gnfiat</title>
<path fill="lightblue" stroke="black" d="M145,-563.5C145,-563.5 12,-563.5 12,-563.5 6,-563.5 0,-557.5 0,-551.5 0,-551.5 0,-537.5 0,-537.5 0,-531.5 6,-525.5 12,-525.5 12,-525.5 145,-525.5 145,-525.5 151,-525.5 157,-531.5 157,-537.5 157,-537.5 157,-551.5 157,-551.5 157,-557.5 151,-563.5 145,-563.5"/>
<text text-anchor="middle" x="78.5" y="-548.3" font-family="Times,serif" font-size="14.00">GNFIAT</text>
<text text-anchor="middle" x="78.5" y="-533.3" font-family="Times,serif" font-size="14.00">Generate file tables</text>
</g>
<!-- semint&#45;&gt;gnfiat -->
<g id="edge3" class="edge">
<title>semint&#45;&gt;gnfiat</title>
<path fill="none" stroke="black" d="M549.76,-681.47C454.88,-654.17 300.04,-609.59 166.5,-571 161.34,-569.51 156.02,-567.97 150.65,-566.42"/>
<polygon fill="black" stroke="black" points="151.57,-563.04 140.99,-563.62 149.62,-569.76 151.57,-563.04"/>
<text text-anchor="middle" x="290" y="-592" font-family="Times,serif" font-size="10.00">2. File tables</text>
</g>
<!-- tmtsio -->
<g id="node5" class="node">
<title>tmtsio</title>
<path fill="lightblue" stroke="black" d="M291.5,-563.5C291.5,-563.5 187.5,-563.5 187.5,-563.5 181.5,-563.5 175.5,-557.5 175.5,-551.5 175.5,-551.5 175.5,-537.5 175.5,-537.5 175.5,-531.5 181.5,-525.5 187.5,-525.5 187.5,-525.5 291.5,-525.5 291.5,-525.5 297.5,-525.5 303.5,-531.5 303.5,-537.5 303.5,-537.5 303.5,-551.5 303.5,-551.5 303.5,-557.5 297.5,-563.5 291.5,-563.5"/>
<text text-anchor="middle" x="239.5" y="-548.3" font-family="Times,serif" font-size="14.00">TMTSIO</text>
<text text-anchor="middle" x="239.5" y="-533.3" font-family="Times,serif" font-size="14.00">I/O timing tests</text>
</g>
<!-- semint&#45;&gt;tmtsio -->
<g id="edge4" class="edge">
<title>semint&#45;&gt;tmtsio</title>
<path fill="none" stroke="black" d="M575.28,-681.41C497.57,-649.96 367.03,-597.12 293.7,-567.44"/>
<polygon fill="black" stroke="black" points="294.77,-564.09 284.18,-563.59 292.14,-570.58 294.77,-564.09"/>
<text text-anchor="middle" x="401.5" y="-592" font-family="Times,serif" font-size="10.00">3. I/O timing</text>
</g>
<!-- tmtslp -->
<g id="node6" class="node">
<title>tmtslp</title>
<path fill="lightblue" stroke="black" d="M449,-563.5C449,-563.5 334,-563.5 334,-563.5 328,-563.5 322,-557.5 322,-551.5 322,-551.5 322,-537.5 322,-537.5 322,-531.5 328,-525.5 334,-525.5 334,-525.5 449,-525.5 449,-525.5 455,-525.5 461,-531.5 461,-537.5 461,-537.5 461,-551.5 461,-551.5 461,-557.5 455,-563.5 449,-563.5"/>
<text text-anchor="middle" x="391.5" y="-548.3" font-family="Times,serif" font-size="14.00">TMTSLP</text>
<text text-anchor="middle" x="391.5" y="-533.3" font-family="Times,serif" font-size="14.00">CPU timing tests</text>
</g>
<!-- semint&#45;&gt;tmtslp -->
<g id="edge5" class="edge">
<title>semint&#45;&gt;tmtslp</title>
<path fill="none" stroke="black" d="M599.36,-681.41C552.21,-650.58 473.62,-599.19 427.78,-569.22"/>
<polygon fill="black" stroke="black" points="429.62,-566.25 419.34,-563.7 425.79,-572.1 429.62,-566.25"/>
<text text-anchor="middle" x="507" y="-592" font-family="Times,serif" font-size="10.00">4. CPU timing</text>
</g>
<!-- xcsa -->
<g id="node7" class="node">
<title>xcsa</title>
<path fill="lightcoral" stroke="black" d="M1347.5,-571C1347.5,-571 1175.5,-571 1175.5,-571 1169.5,-571 1163.5,-565 1163.5,-559 1163.5,-559 1163.5,-530 1163.5,-530 1163.5,-524 1169.5,-518 1175.5,-518 1175.5,-518 1347.5,-518 1347.5,-518 1353.5,-518 1359.5,-524 1359.5,-530 1359.5,-530 1359.5,-559 1359.5,-559 1359.5,-565 1353.5,-571 1347.5,-571"/>
<text text-anchor="middle" x="1261.5" y="-555.8" font-family="Times,serif" font-size="14.00">XCSA</text>
<text text-anchor="middle" x="1261.5" y="-540.8" font-family="Times,serif" font-size="14.00">(xcsa.f90)</text>
<text text-anchor="middle" x="1261.5" y="-525.8" font-family="Times,serif" font-size="14.00">Executive Control Parser</text>
</g>
<!-- semint&#45;&gt;xcsa -->
<g id="edge6" class="edge">
<title>semint&#45;&gt;xcsa</title>
<path fill="none" stroke="black" d="M736.87,-681.5C850.35,-652.08 1036.32,-603.87 1153.66,-573.46"/>
<polygon fill="black" stroke="black" points="1154.59,-576.83 1163.39,-570.93 1152.83,-570.06 1154.59,-576.83"/>
<text text-anchor="middle" x="1115.5" y="-592" font-family="Times,serif" font-size="10.00">5. Exec control</text>
</g>
<!-- endsys -->
<g id="node13" class="node">
<title>endsys</title>
<path fill="lightblue" stroke="black" d="M627.5,-563.5C627.5,-563.5 491.5,-563.5 491.5,-563.5 485.5,-563.5 479.5,-557.5 479.5,-551.5 479.5,-551.5 479.5,-537.5 479.5,-537.5 479.5,-531.5 485.5,-525.5 491.5,-525.5 491.5,-525.5 627.5,-525.5 627.5,-525.5 633.5,-525.5 639.5,-531.5 639.5,-537.5 639.5,-537.5 639.5,-551.5 639.5,-551.5 639.5,-557.5 633.5,-563.5 627.5,-563.5"/>
<text text-anchor="middle" x="559.5" y="-548.3" font-family="Times,serif" font-size="14.00">ENDSYS</text>
<text text-anchor="middle" x="559.5" y="-533.3" font-family="Times,serif" font-size="14.00">Case Control Parser</text>
</g>
<!-- semint&#45;&gt;endsys -->
<g id="edge7" class="edge">
<title>semint&#45;&gt;endsys</title>
<path fill="none" stroke="black" d="M625.98,-681.41C611.53,-651.88 587.86,-603.48 573.01,-573.12"/>
<polygon fill="black" stroke="black" points="576.06,-571.38 568.52,-563.94 569.77,-574.46 576.06,-571.38"/>
<text text-anchor="middle" x="623.5" y="-592" font-family="Times,serif" font-size="10.00">6. Case control</text>
</g>
<!-- xsort -->
<g id="node14" class="node">
<title>xsort</title>
<path fill="lightblue" stroke="black" d="M767.5,-563.5C767.5,-563.5 669.5,-563.5 669.5,-563.5 663.5,-563.5 657.5,-557.5 657.5,-551.5 657.5,-551.5 657.5,-537.5 657.5,-537.5 657.5,-531.5 663.5,-525.5 669.5,-525.5 669.5,-525.5 767.5,-525.5 767.5,-525.5 773.5,-525.5 779.5,-531.5 779.5,-537.5 779.5,-537.5 779.5,-551.5 779.5,-551.5 779.5,-557.5 773.5,-563.5 767.5,-563.5"/>
<text text-anchor="middle" x="718.5" y="-548.3" font-family="Times,serif" font-size="14.00">XSORT</text>
<text text-anchor="middle" x="718.5" y="-533.3" font-family="Times,serif" font-size="14.00">Bulk Data Sort</text>
</g>
<!-- semint&#45;&gt;xsort -->
<g id="edge8" class="edge">
<title>semint&#45;&gt;xsort</title>
<path fill="none" stroke="black" d="M651.18,-681.41C665.81,-651.88 689.78,-603.48 704.82,-573.12"/>
<polygon fill="black" stroke="black" points="708.06,-574.45 709.37,-563.94 701.79,-571.34 708.06,-574.45"/>
<text text-anchor="middle" x="738" y="-592" font-family="Times,serif" font-size="10.00">7. Sort bulk data</text>
</g>
<!-- ifp -->
<g id="node15" class="node">
<title>ifp</title>
<path fill="lightblue" stroke="black" d="M947,-563.5C947,-563.5 810,-563.5 810,-563.5 804,-563.5 798,-557.5 798,-551.5 798,-551.5 798,-537.5 798,-537.5 798,-531.5 804,-525.5 810,-525.5 810,-525.5 947,-525.5 947,-525.5 953,-525.5 959,-531.5 959,-537.5 959,-537.5 959,-551.5 959,-551.5 959,-557.5 953,-563.5 947,-563.5"/>
<text text-anchor="middle" x="878.5" y="-548.3" font-family="Times,serif" font-size="14.00">IFP</text>
<text text-anchor="middle" x="878.5" y="-533.3" font-family="Times,serif" font-size="14.00">Input File Processor</text>
</g>
<!-- semint&#45;&gt;ifp -->
<g id="edge9" class="edge">
<title>semint&#45;&gt;ifp</title>
<path fill="none" stroke="black" d="M676.53,-681.41C722.25,-650.64 798.39,-599.41 842.97,-569.41"/>
<polygon fill="black" stroke="black" points="845.11,-572.19 851.45,-563.7 841.2,-566.38 845.11,-572.19"/>
<text text-anchor="middle" x="849.5" y="-592" font-family="Times,serif" font-size="10.00">8. Process input</text>
</g>
<!-- xcsa_init -->
<g id="node8" class="node">
<title>xcsa_init</title>
<path fill="red" stroke="black" d="M1275,-460C1275,-460 1136,-460 1136,-460 1130,-460 1124,-454 1124,-448 1124,-448 1124,-419 1124,-419 1124,-413 1130,-407 1136,-407 1136,-407 1275,-407 1275,-407 1281,-407 1287,-413 1287,-419 1287,-419 1287,-448 1287,-448 1287,-454 1281,-460 1275,-460"/>
<text text-anchor="middle" x="1205.5" y="-444.8" font-family="Times,serif" font-size="14.00" fill="white">XCSA Initialization</text>
<text text-anchor="middle" x="1205.5" y="-429.8" font-family="Times,serif" font-size="14.00" fill="white">(lines 141&#45;176)</text>
<text text-anchor="middle" x="1205.5" y="-414.8" font-family="Times,serif" font-size="14.00" fill="white">⚠ NOT EXECUTING</text>
</g>
<!-- xcsa&#45;&gt;xcsa_init -->
<g id="edge10" class="edge">
<title>xcsa&#45;&gt;xcsa_init</title>
<path fill="none" stroke="red" stroke-dasharray="5,2" d="M1221.2,-517.93C1215.71,-512.68 1210.82,-506.68 1207.5,-500 1203.02,-491 1201.4,-480.42 1201.19,-470.41"/>
<polygon fill="red" stroke="red" points="1204.69,-470.36 1201.42,-460.28 1197.69,-470.2 1204.69,-470.36"/>
<text text-anchor="middle" x="1254.5" y="-492" font-family="Times,serif" font-size="10.00">Expected:</text>
<text text-anchor="middle" x="1254.5" y="-481" font-family="Times,serif" font-size="10.00">Initialize variables</text>
</g>
<!-- xcsa_loop -->
<g id="node11" class="node">
<title>xcsa_loop</title>
<path fill="green" stroke="black" d="M1335,-164C1335,-164 1186,-164 1186,-164 1180,-164 1174,-158 1174,-152 1174,-152 1174,-123 1174,-123 1174,-117 1180,-111 1186,-111 1186,-111 1335,-111 1335,-111 1341,-111 1347,-117 1347,-123 1347,-123 1347,-152 1347,-152 1347,-158 1341,-164 1335,-164"/>
<text text-anchor="middle" x="1260.5" y="-148.8" font-family="Times,serif" font-size="14.00" fill="white">Card Processing Loop</text>
<text text-anchor="middle" x="1260.5" y="-133.8" font-family="Times,serif" font-size="14.00" fill="white">(label 20, line 278)</text>
<text text-anchor="middle" x="1260.5" y="-118.8" font-family="Times,serif" font-size="14.00" fill="white">✓ EXECUTING</text>
</g>
<!-- xcsa&#45;&gt;xcsa_loop -->
<g id="edge14" class="edge">
<title>xcsa&#45;&gt;xcsa_loop</title>
<path fill="none" stroke="green" stroke-width="2" d="M1289.35,-517.6C1293.97,-512.17 1298.3,-506.2 1301.5,-500 1315.17,-473.55 1315.5,-464.27 1315.5,-434.5 1315.5,-434.5 1315.5,-434.5 1315.5,-236.5 1315.5,-211.49 1313.57,-203.9 1301.5,-182 1299.69,-178.72 1297.58,-175.49 1295.28,-172.38"/>
<polygon fill="green" stroke="green" stroke-width="2" points="1297.86,-170 1288.85,-164.42 1292.41,-174.4 1297.86,-170"/>
<text text-anchor="middle" x="1348.5" y="-344" font-family="Times,serif" font-size="10.00">ACTUAL:</text>
<text text-anchor="middle" x="1348.5" y="-333" font-family="Times,serif" font-size="10.00">Direct jump?</text>
</g>
<!-- xcsa_page -->
<g id="node9" class="node">
<title>xcsa_page</title>
<path fill="orange" stroke="black" d="M1236,-360C1236,-360 1175,-360 1175,-360 1169,-360 1163,-354 1163,-348 1163,-348 1163,-334 1163,-334 1163,-328 1169,-322 1175,-322 1175,-322 1236,-322 1236,-322 1242,-322 1248,-328 1248,-334 1248,-334 1248,-348 1248,-348 1248,-354 1242,-360 1236,-360"/>
<text text-anchor="middle" x="1205.5" y="-344.8" font-family="Times,serif" font-size="14.00">call page</text>
<text text-anchor="middle" x="1205.5" y="-329.8" font-family="Times,serif" font-size="14.00">(line 205)</text>
</g>
<!-- xcsa_init&#45;&gt;xcsa_page -->
<g id="edge11" class="edge">
<title>xcsa_init&#45;&gt;xcsa_page</title>
<path fill="none" stroke="red" stroke-dasharray="5,2" d="M1205.5,-406.81C1205.5,-395.45 1205.5,-382.05 1205.5,-370.39"/>
<polygon fill="red" stroke="red" points="1209,-370.28 1205.5,-360.28 1202,-370.28 1209,-370.28"/>
<text text-anchor="middle" x="1242" y="-381" font-family="Times,serif" font-size="10.00">Expected flow</text>
</g>
<!-- xcsa_rust -->
<g id="node10" class="node">
<title>xcsa_rust</title>
<path fill="red" stroke="black" d="M1275,-264C1275,-264 1136,-264 1136,-264 1130,-264 1124,-258 1124,-252 1124,-252 1124,-223 1124,-223 1124,-217 1130,-211 1136,-211 1136,-211 1275,-211 1275,-211 1281,-211 1287,-217 1287,-223 1287,-223 1287,-252 1287,-252 1287,-258 1281,-264 1275,-264"/>
<text text-anchor="middle" x="1205.5" y="-248.8" font-family="Times,serif" font-size="14.00" fill="white">Rust Bridge Code</text>
<text text-anchor="middle" x="1205.5" y="-233.8" font-family="Times,serif" font-size="14.00" fill="white">(lines 207&#45;248)</text>
<text text-anchor="middle" x="1205.5" y="-218.8" font-family="Times,serif" font-size="14.00" fill="white">⚠ NOT EXECUTING</text>
</g>
<!-- xcsa_page&#45;&gt;xcsa_rust -->
<g id="edge12" class="edge">
<title>xcsa_page&#45;&gt;xcsa_rust</title>
<path fill="none" stroke="red" stroke-dasharray="5,2" d="M1205.5,-321.85C1205.5,-308.66 1205.5,-290.38 1205.5,-274.29"/>
<polygon fill="red" stroke="red" points="1209,-274.11 1205.5,-264.11 1202,-274.11 1209,-274.11"/>
<text text-anchor="middle" x="1251.5" y="-296" font-family="Times,serif" font-size="10.00">Expected:</text>
<text text-anchor="middle" x="1251.5" y="-285" font-family="Times,serif" font-size="10.00">Validate with Rust</text>
</g>
<!-- xcsa_rust&#45;&gt;xcsa_loop -->
<g id="edge13" class="edge">
<title>xcsa_rust&#45;&gt;xcsa_loop</title>
<path fill="none" stroke="red" stroke-dasharray="5,2" d="M1214.84,-210.95C1218.62,-201.61 1223.32,-191.11 1228.5,-182 1230.32,-178.8 1232.34,-175.55 1234.45,-172.35"/>
<polygon fill="red" stroke="red" points="1237.37,-174.27 1240.17,-164.05 1231.61,-170.29 1237.37,-174.27"/>
<text text-anchor="middle" x="1265" y="-185" font-family="Times,serif" font-size="10.00">Expected flow</text>
</g>
<!-- xcsa_error -->
<g id="node12" class="node">
<title>xcsa_error</title>
<path fill="green" stroke="black" d="M1341,-53C1341,-53 1180,-53 1180,-53 1174,-53 1168,-47 1168,-41 1168,-41 1168,-12 1168,-12 1168,-6 1174,0 1180,0 1180,0 1341,0 1341,0 1347,0 1353,-6 1353,-12 1353,-12 1353,-41 1353,-41 1353,-47 1347,-53 1341,-53"/>
<text text-anchor="middle" x="1260.5" y="-37.8" font-family="Times,serif" font-size="14.00" fill="white">MESSAGE 507 Handler</text>
<text text-anchor="middle" x="1260.5" y="-22.8" font-family="Times,serif" font-size="14.00" fill="white">(line 760+)</text>
<text text-anchor="middle" x="1260.5" y="-7.8" font-family="Times,serif" font-size="14.00" fill="white">✓ EXECUTING</text>
</g>
<!-- xcsa_loop&#45;&gt;xcsa_error -->
<g id="edge15" class="edge">
<title>xcsa_loop&#45;&gt;xcsa_error</title>
<path fill="none" stroke="green" stroke-width="2" d="M1260.5,-110.94C1260.5,-96.83 1260.5,-79.08 1260.5,-63.57"/>
<polygon fill="green" stroke="green" stroke-width="2" points="1264,-63.27 1260.5,-53.27 1257,-63.27 1264,-63.27"/>
<text text-anchor="middle" x="1302" y="-85" font-family="Times,serif" font-size="10.00">DIAG/APP cards</text>
<text text-anchor="middle" x="1302" y="-74" font-family="Times,serif" font-size="10.00">trigger error</text>
</g>
<!-- problem -->
<g id="node16" class="node">
<title>problem</title>
<polygon fill="yellow" stroke="black" points="1369,-798 1148,-798 1148,-618 1375,-618 1375,-792 1369,-798"/>
<polyline fill="none" stroke="black" points="1369,-798 1369,-792 "/>
<polyline fill="none" stroke="black" points="1375,-792 1369,-792 "/>
<text text-anchor="middle" x="1261.5" y="-785.2" font-family="Times,serif" font-size="11.00">⚠ PROBLEM IDENTIFIED ⚠</text>
<text text-anchor="middle" x="1261.5" y="-760.2" font-family="Times,serif" font-size="11.00">1. Old xcsa.f in mis/ was being linked</text>
<text text-anchor="middle" x="1261.5" y="-748.2" font-family="Times,serif" font-size="11.00"> &#160;&#160;(excluded from build now)</text>
<text text-anchor="middle" x="1261.5" y="-723.2" font-family="Times,serif" font-size="11.00">2. Even after fix, xcsa.f90</text>
<text text-anchor="middle" x="1261.5" y="-711.2" font-family="Times,serif" font-size="11.00"> &#160;&#160;initialization &amp; Rust bridge</text>
<text text-anchor="middle" x="1261.5" y="-699.2" font-family="Times,serif" font-size="11.00"> &#160;&#160;sections NOT executing</text>
<text text-anchor="middle" x="1261.5" y="-674.2" font-family="Times,serif" font-size="11.00">3. Card loop IS executing</text>
<text text-anchor="middle" x="1261.5" y="-662.2" font-family="Times,serif" font-size="11.00"> &#160;&#160;(MESSAGE 507 appears)</text>
<text text-anchor="middle" x="1261.5" y="-637.2" font-family="Times,serif" font-size="11.00">4. Unknown entry point or</text>
<text text-anchor="middle" x="1261.5" y="-625.2" font-family="Times,serif" font-size="11.00"> &#160;&#160;control flow issue</text>
</g>
<!-- problem&#45;&gt;xcsa -->
<!-- exec -->
<g id="node17" class="node">
<title>exec</title>
<path fill="green" stroke="black" d="M1777.5,-889.5C1777.5,-889.5 1699.5,-889.5 1699.5,-889.5 1693.5,-889.5 1687.5,-883.5 1687.5,-877.5 1687.5,-877.5 1687.5,-865.5 1687.5,-865.5 1687.5,-859.5 1693.5,-853.5 1699.5,-853.5 1699.5,-853.5 1777.5,-853.5 1777.5,-853.5 1783.5,-853.5 1789.5,-859.5 1789.5,-865.5 1789.5,-865.5 1789.5,-877.5 1789.5,-877.5 1789.5,-883.5 1783.5,-889.5 1777.5,-889.5"/>
<text text-anchor="middle" x="1738.5" y="-867.8" font-family="Times,serif" font-size="14.00" fill="white">✓ Executing</text>
</g>
<!-- notexec -->
<g id="node18" class="node">
<title>notexec</title>
<path fill="red" stroke="black" d="M1657.5,-889.5C1657.5,-889.5 1543.5,-889.5 1543.5,-889.5 1537.5,-889.5 1531.5,-883.5 1531.5,-877.5 1531.5,-877.5 1531.5,-865.5 1531.5,-865.5 1531.5,-859.5 1537.5,-853.5 1543.5,-853.5 1543.5,-853.5 1657.5,-853.5 1657.5,-853.5 1663.5,-853.5 1669.5,-859.5 1669.5,-865.5 1669.5,-865.5 1669.5,-877.5 1669.5,-877.5 1669.5,-883.5 1663.5,-889.5 1657.5,-889.5"/>
<text text-anchor="middle" x="1600.5" y="-867.8" font-family="Times,serif" font-size="14.00" fill="white">⚠ Not Executing</text>
</g>
<!-- expected -->
<g id="node19" class="node">
<title>expected</title>
<path fill="lightblue" stroke="transparent" d="M1501.5,-889.5C1501.5,-889.5 1403.5,-889.5 1403.5,-889.5 1397.5,-889.5 1391.5,-883.5 1391.5,-877.5 1391.5,-877.5 1391.5,-865.5 1391.5,-865.5 1391.5,-859.5 1397.5,-853.5 1403.5,-853.5 1403.5,-853.5 1501.5,-853.5 1501.5,-853.5 1507.5,-853.5 1513.5,-859.5 1513.5,-865.5 1513.5,-865.5 1513.5,-877.5 1513.5,-877.5 1513.5,-883.5 1507.5,-889.5 1501.5,-889.5"/>
<text text-anchor="middle" x="1452.5" y="-867.8" font-family="Times,serif" font-size="14.00">Expected Flow</text>
</g>
<!-- actual -->
<g id="node20" class="node">
<title>actual</title>
<path fill="lightblue" stroke="transparent" d="M1491,-726C1491,-726 1414,-726 1414,-726 1408,-726 1402,-720 1402,-714 1402,-714 1402,-702 1402,-702 1402,-696 1408,-690 1414,-690 1414,-690 1491,-690 1491,-690 1497,-690 1503,-696 1503,-702 1503,-702 1503,-714 1503,-714 1503,-720 1497,-726 1491,-726"/>
<text text-anchor="middle" x="1452.5" y="-704.3" font-family="Times,serif" font-size="14.00">Actual Flow</text>
</g>
<!-- expected&#45;&gt;actual -->
</g>
</svg>
